<svg width="24" height="24" viewBox="0 0 24 24" fill="none" xmlns="http://www.w3.org/2000/svg">
<path d="M6.70711 12.2929C6.31658 11.9024 5.68342 11.9024 5.29289 12.2929C4.90237 12.6834 4.90237 13.3166 5.29289 13.7071L10.7436 19.1578C10.8278 19.242 10.9283 19.3427 11.0242 19.4241C11.1352 19.5183 11.3038 19.6439 11.5365 19.7195C11.8377 19.8174 12.1623 19.8174 12.4635 19.7195C12.6962 19.6439 12.8648 19.5183 12.9758 19.4241C13.0717 19.3427 13.1722 19.242 13.2564 19.1578L18.7071 13.7071C19.0976 13.3166 19.0976 12.6834 18.7071 12.2929C18.3166 11.9024 17.6834 11.9024 17.2929 12.2929L13 16.5858L13 5C13 4.44772 12.5523 4 12 4C11.4477 4 11 4.44771 11 5V16.5858L6.70711 12.2929Z" fill="#17A3A9"/>
</svg>