<svg width="82" height="82" viewBox="0 0 82 82" fill="none" xmlns="http://www.w3.org/2000/svg">
<path d="M82 41C82 63.6437 63.6437 82 41 82C18.3563 82 0 63.6437 0 41C0 18.3563 18.3563 0 41 0C63.6437 0 82 18.3563 82 41ZM14.4817 41C14.4817 55.6456 26.3544 67.5183 41 67.5183C55.6456 67.5183 67.5183 55.6456 67.5183 41C67.5183 26.3544 55.6456 14.4817 41 14.4817C26.3544 14.4817 14.4817 26.3544 14.4817 41Z" fill="#D6D6D6"/>
<path d="M41 0C47.4702 7.71567e-08 53.8486 1.53131 59.6136 4.46873C65.3786 7.40615 70.3666 11.6663 74.1697 16.9008C77.9728 22.1353 80.4831 28.1956 81.4952 34.5862C82.5074 40.9767 81.9927 47.5161 79.9933 53.6697C77.9939 59.8232 74.5665 65.4162 69.9914 69.9914C65.4162 74.5665 59.8233 77.9939 53.6697 79.9933C47.5162 81.9927 40.9768 82.5074 34.5862 81.4952C28.1956 80.4831 22.1353 77.9728 16.9008 74.1697L25.413 62.4537C28.7986 64.9135 32.7183 66.5371 36.8516 67.1918C40.985 67.8464 45.2146 67.5136 49.1946 66.2204C53.1746 64.9272 56.7921 62.7104 59.7513 59.7512C62.7104 56.7921 64.9272 53.1746 66.2204 49.1946C67.5136 45.2146 67.8464 40.985 67.1918 36.8516C66.5371 32.7183 64.9135 28.7986 62.4537 25.4129C59.9939 22.0273 56.7678 19.2719 53.039 17.372C49.3103 15.4722 45.1849 14.4817 41 14.4817L41 0Z" fill="#EB1700"/>
</svg>