<svg width="80" height="68" viewBox="0 0 80 68" fill="none" xmlns="http://www.w3.org/2000/svg">
<path d="M10.5405 34.1715L63.5306 10.7617L61.42 16.5562L65.8237 18.1647L70.6785 4.83511L57.4351 0L55.8292 4.40916L61.5604 6.50222L8.64844 29.8778L10.5405 34.1715Z" fill="#F54323"/>
<rect y="62.6035" width="80" height="5.39683" fill="#D6D6D6"/>
<path d="M17.2974 42.8574C17.2974 40.6483 19.0882 38.8574 21.2974 38.8574H32.7568C34.966 38.8574 36.7568 40.6483 36.7568 42.8574V62.6035H17.2974V42.8574Z" fill="#9F9F9F"/>
<path d="M43.2432 33.1436C43.2432 30.9344 45.034 29.1436 47.2432 29.1436H58.7026C60.9118 29.1436 62.7026 30.9344 62.7026 33.1436V62.6039H43.2432V33.1436Z" fill="#F54323"/>
</svg>