<svg width="76" height="82" viewBox="0 0 76 82" fill="none" xmlns="http://www.w3.org/2000/svg">
<rect x="34" y="6" width="6" height="8" fill="#F54323"/>
<path fill-rule="evenodd" clip-rule="evenodd" d="M47 3C47 1.34315 45.6569 0 44 0H30C28.3431 0 27 1.34315 27 3C27 4.65685 28.3431 6 30 6L44 6C45.6569 6 47 4.65686 47 3ZM69 45.5C69 62.897 54.897 77 37.5 77C20.103 77 6 62.897 6 45.5C6 28.103 20.103 14 37.5 14C54.897 14 69 28.103 69 45.5ZM74 45.5C74 65.6584 57.6584 82 37.5 82C17.3416 82 1 65.6584 1 45.5C1 36.5644 4.21089 28.3788 9.54182 22.034C9.52643 22.0206 9.51112 22.007 9.49588 21.9933L7.97256 20.6217C6.33085 19.1435 6.1983 16.6143 7.67651 14.9726C9.15471 13.3309 11.6839 13.1983 13.3256 14.6765L14.8489 16.0481C15.0145 16.1972 15.1647 16.357 15.2995 16.5255C21.4505 11.8055 29.1476 9 37.5 9C46.4412 9 54.6316 12.215 60.9781 17.552L62.9656 15.7624C64.6073 14.2842 67.1365 14.4168 68.6147 16.0585C70.0929 17.7002 69.9603 20.2294 68.3186 21.7076L66.5056 23.34C71.2068 29.4843 74 37.166 74 45.5Z" fill="#F54323"/>
<path fill-rule="evenodd" clip-rule="evenodd" d="M11.0415 44C11.7728 30.8938 22.028 20.3301 34.9998 19.1163V25.5C34.9998 26.8807 36.1191 28 37.4998 28C38.8805 28 39.9998 26.8807 39.9998 25.5V19.1163C52.6399 20.2991 62.7006 30.3598 63.8834 43H58.4998C57.1191 43 55.9998 44.1192 55.9998 45.5C55.9998 46.8807 57.1191 48 58.4998 48H63.8834C62.7006 60.6401 52.6399 70.7008 39.9998 71.8836V66.5C39.9998 65.1192 38.8805 64 37.4998 64C36.1191 64 34.9998 65.1192 34.9998 66.5L34.9998 71.8836C22.6948 70.7322 12.8343 61.1674 11.2288 49L16.4998 49C17.8805 49 18.9998 47.8807 18.9998 46.5C18.9998 45.1192 17.8805 44 16.4998 44L11.0415 44Z" fill="#D6D6D6"/>
<path d="M37.4686 47.4211L26.4991 57.725L33.8029 44.5662C34.4987 43.3127 36.1446 42.9683 37.2846 43.8377C38.4399 44.7188 38.5276 46.4264 37.4686 47.4211Z" stroke="#4D4D4D" stroke-width="3"/>
</svg>