<?xml version="1.0" standalone="no"?><!DOCTYPE svg PUBLIC "-//W3C//DTD SVG 1.1//EN" "http://www.w3.org/Graphics/SVG/1.1/DTD/svg11.dtd"><svg height="44px" width="131px" class="SVG_root___353jb" x="0px" y="0px" viewBox="0 0 131 44" version="1.1" xmlns="http://www.w3.org/2000/svg" xmlns:xlink="http://www.w3.org/1999/xlink" style="block-size:44px;border-block-end-color:rgb(0, 123, 255);border-block-start-color:rgb(0, 123, 255);border-bottom-color:rgb(0, 123, 255);border-inline-end-color:rgb(0, 123, 255);border-inline-start-color:rgb(0, 123, 255);border-left-color:rgb(0, 123, 255);border-right-color:rgb(0, 123, 255);border-top-color:rgb(0, 123, 255);caret-color:rgb(0, 123, 255);color:rgb(0, 123, 255);column-rule-color:rgb(0, 123, 255);cursor:pointer;fill:rgb(255, 255, 255);font-family:DD-TTNorms;font-size:14px;height:44px;inline-size:131px;letter-spacing:normal;line-height:14px;outline-color:rgb(0, 123, 255);perspective-origin:65.5px 22px;text-align:center;text-decoration:none solid rgb(0, 123, 255);text-decoration-color:rgb(0, 123, 255);transform-origin:65.5px 22px;width:131px;-webkit-text-emphasis-color:rgb(0, 123, 255);-webkit-text-fill-color:rgb(0, 123, 255);-webkit-text-stroke-color:rgb(0, 123, 255);">
				<path d="M95.752,9.966l0.07,0.861h0.036c0.259-0.448,0.883-0.99,1.838-0.99c1.002,0,2.039,0.648,2.039,2.463v3.406 h-1.45v-3.242c0-0.825-0.307-1.45-1.096-1.45c-0.578,0-0.978,0.413-1.132,0.849c-0.047,0.118-0.07,0.295-0.07,0.46v3.383h-1.45 v-4.031c0-0.661-0.024-1.214-0.047-1.709H95.752z" style="block-size:auto;border-block-end-color:rgb(0, 123, 255);border-block-start-color:rgb(0, 123, 255);border-bottom-color:rgb(0, 123, 255);border-inline-end-color:rgb(0, 123, 255);border-inline-start-color:rgb(0, 123, 255);border-left-color:rgb(0, 123, 255);border-right-color:rgb(0, 123, 255);border-top-color:rgb(0, 123, 255);caret-color:rgb(0, 123, 255);color:rgb(0, 123, 255);column-rule-color:rgb(0, 123, 255);cursor:pointer;d:path(&quot;M 95.752 9.966 L 95.822 10.827 H 95.858 C 96.117 10.379 96.741 9.837 97.696 9.837 C 98.698 9.837 99.735 10.485 99.735 12.3 V 15.706 H 98.285 V 12.464 C 98.285 11.639 97.978 11.014 97.189 11.014 C 96.611 11.014 96.211 11.427 96.057 11.863 C 96.01 11.981 95.987 12.158 95.987 12.323 V 15.706 H 94.537 V 11.675 C 94.537 11.014 94.513 10.461 94.49 9.966 H 95.752 Z&quot;);fill:rgb(255, 255, 255);font-family:DD-TTNorms;font-size:14px;height:auto;inline-size:auto;letter-spacing:normal;line-height:14px;outline-color:rgb(0, 123, 255);overflow-x:visible;overflow-y:visible;perspective-origin:0px 0px;text-align:center;text-decoration:none solid rgb(0, 123, 255);text-decoration-color:rgb(0, 123, 255);transform-origin:0px 0px;vertical-align:baseline;width:auto;-webkit-text-emphasis-color:rgb(0, 123, 255);-webkit-text-fill-color:rgb(0, 123, 255);-webkit-text-stroke-color:rgb(0, 123, 255);"/>
				<rect x="74.588" y="7.338" width="1.449" height="8.368" style="block-size:8.368px;border-block-end-color:rgb(0, 123, 255);border-block-start-color:rgb(0, 123, 255);border-bottom-color:rgb(0, 123, 255);border-inline-end-color:rgb(0, 123, 255);border-inline-start-color:rgb(0, 123, 255);border-left-color:rgb(0, 123, 255);border-right-color:rgb(0, 123, 255);border-top-color:rgb(0, 123, 255);caret-color:rgb(0, 123, 255);color:rgb(0, 123, 255);column-rule-color:rgb(0, 123, 255);cursor:pointer;fill:rgb(255, 255, 255);font-family:DD-TTNorms;font-size:14px;height:8.368px;inline-size:1.449px;letter-spacing:normal;line-height:14px;outline-color:rgb(0, 123, 255);overflow-x:visible;overflow-y:visible;perspective-origin:0px 0px;text-align:center;text-decoration:none solid rgb(0, 123, 255);text-decoration-color:rgb(0, 123, 255);transform-origin:0px 0px;vertical-align:baseline;width:1.449px;x:74.588px;y:7.338px;-webkit-text-emphasis-color:rgb(0, 123, 255);-webkit-text-fill-color:rgb(0, 123, 255);-webkit-text-stroke-color:rgb(0, 123, 255);"/>
				<path d="M54.52,7.573c0.495,0,0.802,0.342,0.813,0.79c0,0.424-0.318,0.778-0.825,0.778 c-0.484,0-0.801-0.354-0.801-0.778C53.707,7.916,54.036,7.573,54.52,7.573z" style="block-size:auto;border-block-end-color:rgb(0, 123, 255);border-block-start-color:rgb(0, 123, 255);border-bottom-color:rgb(0, 123, 255);border-inline-end-color:rgb(0, 123, 255);border-inline-start-color:rgb(0, 123, 255);border-left-color:rgb(0, 123, 255);border-right-color:rgb(0, 123, 255);border-top-color:rgb(0, 123, 255);caret-color:rgb(0, 123, 255);color:rgb(0, 123, 255);column-rule-color:rgb(0, 123, 255);cursor:pointer;d:path(&quot;M 54.52 7.573 C 55.015 7.573 55.322 7.915 55.333 8.363 C 55.333 8.787 55.015 9.141 54.508 9.141 C 54.024 9.141 53.707 8.787 53.707 8.363 C 53.707 7.916 54.036 7.573 54.52 7.573 Z&quot;);fill:rgb(255, 255, 255);font-family:DD-TTNorms;font-size:14px;height:auto;inline-size:auto;letter-spacing:normal;line-height:14px;outline-color:rgb(0, 123, 255);overflow-x:visible;overflow-y:visible;perspective-origin:0px 0px;text-align:center;text-decoration:none solid rgb(0, 123, 255);text-decoration-color:rgb(0, 123, 255);transform-origin:0px 0px;vertical-align:baseline;width:auto;-webkit-text-emphasis-color:rgb(0, 123, 255);-webkit-text-fill-color:rgb(0, 123, 255);-webkit-text-stroke-color:rgb(0, 123, 255);"/>
				<rect x="53.789" y="9.966" width="1.449" height="5.74" style="block-size:5.74px;border-block-end-color:rgb(0, 123, 255);border-block-start-color:rgb(0, 123, 255);border-bottom-color:rgb(0, 123, 255);border-inline-end-color:rgb(0, 123, 255);border-inline-start-color:rgb(0, 123, 255);border-left-color:rgb(0, 123, 255);border-right-color:rgb(0, 123, 255);border-top-color:rgb(0, 123, 255);caret-color:rgb(0, 123, 255);color:rgb(0, 123, 255);column-rule-color:rgb(0, 123, 255);cursor:pointer;fill:rgb(255, 255, 255);font-family:DD-TTNorms;font-size:14px;height:5.74px;inline-size:1.449px;letter-spacing:normal;line-height:14px;outline-color:rgb(0, 123, 255);overflow-x:visible;overflow-y:visible;perspective-origin:0px 0px;text-align:center;text-decoration:none solid rgb(0, 123, 255);text-decoration-color:rgb(0, 123, 255);transform-origin:0px 0px;vertical-align:baseline;width:1.449px;x:53.789px;y:9.966px;-webkit-text-emphasis-color:rgb(0, 123, 255);-webkit-text-fill-color:rgb(0, 123, 255);-webkit-text-stroke-color:rgb(0, 123, 255);"/>
				<path d="M43.707,15.706H42.28l-2.133-5.74h1.568l0.93,2.911c0.165,0.507,0.283,0.967,0.389,1.438h0.036 c0.105-0.472,0.236-0.92,0.389-1.438l0.92-2.911h1.521L43.707,15.706z" style="block-size:auto;border-block-end-color:rgb(0, 123, 255);border-block-start-color:rgb(0, 123, 255);border-bottom-color:rgb(0, 123, 255);border-inline-end-color:rgb(0, 123, 255);border-inline-start-color:rgb(0, 123, 255);border-left-color:rgb(0, 123, 255);border-right-color:rgb(0, 123, 255);border-top-color:rgb(0, 123, 255);caret-color:rgb(0, 123, 255);color:rgb(0, 123, 255);column-rule-color:rgb(0, 123, 255);cursor:pointer;d:path(&quot;M 43.707 15.706 H 42.28 L 40.147 9.966 H 41.715 L 42.645 12.877 C 42.81 13.384 42.928 13.844 43.034 14.315 H 43.07 C 43.175 13.843 43.306 13.395 43.459 12.877 L 44.379 9.966 H 45.9 L 43.707 15.706 Z&quot;);fill:rgb(255, 255, 255);font-family:DD-TTNorms;font-size:14px;height:auto;inline-size:auto;letter-spacing:normal;line-height:14px;outline-color:rgb(0, 123, 255);overflow-x:visible;overflow-y:visible;perspective-origin:0px 0px;text-align:center;text-decoration:none solid rgb(0, 123, 255);text-decoration-color:rgb(0, 123, 255);transform-origin:0px 0px;vertical-align:baseline;width:auto;-webkit-text-emphasis-color:rgb(0, 123, 255);-webkit-text-fill-color:rgb(0, 123, 255);-webkit-text-stroke-color:rgb(0, 123, 255);"/>
				<rect x="57.515" y="7.338" width="1.449" height="8.368" style="block-size:8.368px;border-block-end-color:rgb(0, 123, 255);border-block-start-color:rgb(0, 123, 255);border-bottom-color:rgb(0, 123, 255);border-inline-end-color:rgb(0, 123, 255);border-inline-start-color:rgb(0, 123, 255);border-left-color:rgb(0, 123, 255);border-right-color:rgb(0, 123, 255);border-top-color:rgb(0, 123, 255);caret-color:rgb(0, 123, 255);color:rgb(0, 123, 255);column-rule-color:rgb(0, 123, 255);cursor:pointer;fill:rgb(255, 255, 255);font-family:DD-TTNorms;font-size:14px;height:8.368px;inline-size:1.449px;letter-spacing:normal;line-height:14px;outline-color:rgb(0, 123, 255);overflow-x:visible;overflow-y:visible;perspective-origin:0px 0px;text-align:center;text-decoration:none solid rgb(0, 123, 255);text-decoration-color:rgb(0, 123, 255);transform-origin:0px 0px;vertical-align:baseline;width:1.449px;x:57.515px;y:7.338px;-webkit-text-emphasis-color:rgb(0, 123, 255);-webkit-text-fill-color:rgb(0, 123, 255);-webkit-text-stroke-color:rgb(0, 123, 255);"/>
				<path d="M82.795,33.559c-1.012,0.903-2.413,1.351-4.211,1.351c-1.666,0-2.999-0.322-4.005-0.961l0.575-2.063 c1.085,0.639,2.276,0.963,3.572,0.963c0.937,0,1.661-0.213,2.181-0.63c0.517-0.419,0.777-0.98,0.777-1.692 c0-0.618-0.214-1.146-0.64-1.576c-0.432-0.428-1.137-0.822-2.132-1.192c-2.703-1.006-4.057-2.482-4.057-4.422 c0-1.269,0.472-2.311,1.429-3.121c0.955-0.808,2.22-1.214,3.797-1.214c1.405,0,2.575,0.246,3.509,0.732l-0.625,2.018 c-0.871-0.472-1.861-0.712-2.965-0.712c-0.873,0-1.558,0.222-2.05,0.639c-0.411,0.388-0.618,0.854-0.618,1.403 c0,0.607,0.237,1.113,0.71,1.517c0.414,0.365,1.163,0.761,2.245,1.188c1.334,0.531,2.309,1.162,2.938,1.882 c0.625,0.718,0.94,1.611,0.94,2.679C84.165,31.665,83.705,32.738,82.795,33.559z" style="block-size:auto;border-block-end-color:rgb(0, 123, 255);border-block-start-color:rgb(0, 123, 255);border-bottom-color:rgb(0, 123, 255);border-inline-end-color:rgb(0, 123, 255);border-inline-start-color:rgb(0, 123, 255);border-left-color:rgb(0, 123, 255);border-right-color:rgb(0, 123, 255);border-top-color:rgb(0, 123, 255);caret-color:rgb(0, 123, 255);color:rgb(0, 123, 255);column-rule-color:rgb(0, 123, 255);cursor:pointer;d:path(&quot;M 82.795 33.559 C 81.783 34.462 80.382 34.91 78.584 34.91 C 76.918 34.91 75.585 34.588 74.579 33.949 L 75.154 31.886 C 76.239 32.525 77.43 32.849 78.726 32.849 C 79.663 32.849 80.387 32.636 80.907 32.219 C 81.424 31.8 81.684 31.239 81.684 30.527 C 81.684 29.909 81.47 29.381 81.044 28.951 C 80.612 28.523 79.907 28.129 78.912 27.759 C 76.209 26.753 74.855 25.277 74.855 23.337 C 74.855 22.068 75.327 21.026 76.284 20.216 C 77.239 19.408 78.504 19.002 80.081 19.002 C 81.486 19.002 82.656 19.248 83.59 19.734 L 82.965 21.752 C 82.094 21.28 81.104 21.04 80 21.04 C 79.127 21.04 78.442 21.262 77.95 21.679 C 77.539 22.067 77.332 22.533 77.332 23.082 C 77.332 23.689 77.569 24.195 78.042 24.599 C 78.456 24.964 79.205 25.36 80.287 25.787 C 81.621 26.318 82.596 26.949 83.225 27.669 C 83.85 28.387 84.165 29.28 84.165 30.348 C 84.165 31.665 83.705 32.738 82.795 33.559 Z&quot;);fill:rgb(255, 255, 255);font-family:DD-TTNorms;font-size:14px;height:auto;inline-size:auto;letter-spacing:normal;line-height:14px;outline-color:rgb(0, 123, 255);overflow-x:visible;overflow-y:visible;perspective-origin:0px 0px;text-align:center;text-decoration:none solid rgb(0, 123, 255);text-decoration-color:rgb(0, 123, 255);transform-origin:0px 0px;vertical-align:baseline;width:auto;-webkit-text-emphasis-color:rgb(0, 123, 255);-webkit-text-fill-color:rgb(0, 123, 255);-webkit-text-stroke-color:rgb(0, 123, 255);"/>
				<path d="M91.524,25.395h-2.733v5.417c0,1.374,0.485,2.056,1.449,2.056c0.443,0,0.807-0.033,1.099-0.108l0.07,1.876 c-0.49,0.183-1.131,0.276-1.926,0.276c-0.973,0-1.743-0.294-2.291-0.894c-0.555-0.593-0.829-1.596-0.829-3.002v-5.621h-1.626V23.54 h1.626V21.5l2.428-0.733v2.773h2.733V25.395z" style="block-size:auto;border-block-end-color:rgb(0, 123, 255);border-block-start-color:rgb(0, 123, 255);border-bottom-color:rgb(0, 123, 255);border-inline-end-color:rgb(0, 123, 255);border-inline-start-color:rgb(0, 123, 255);border-left-color:rgb(0, 123, 255);border-right-color:rgb(0, 123, 255);border-top-color:rgb(0, 123, 255);caret-color:rgb(0, 123, 255);color:rgb(0, 123, 255);column-rule-color:rgb(0, 123, 255);cursor:pointer;d:path(&quot;M 91.524 25.395 H 88.791 V 30.812 C 88.791 32.186 89.276 32.868 90.24 32.868 C 90.683 32.868 91.047 32.835 91.339 32.76 L 91.409 34.636 C 90.919 34.819 90.278 34.912 89.483 34.912 C 88.51 34.912 87.74 34.618 87.192 34.018 C 86.637 33.425 86.363 32.422 86.363 31.016 V 25.395 H 84.737 V 23.54 H 86.363 V 21.5 L 88.791 20.767 V 23.54 H 91.524 V 25.395 Z&quot;);fill:rgb(255, 255, 255);font-family:DD-TTNorms;font-size:14px;height:auto;inline-size:auto;letter-spacing:normal;line-height:14px;outline-color:rgb(0, 123, 255);overflow-x:visible;overflow-y:visible;perspective-origin:0px 0px;text-align:center;text-decoration:none solid rgb(0, 123, 255);text-decoration-color:rgb(0, 123, 255);transform-origin:0px 0px;vertical-align:baseline;width:auto;-webkit-text-emphasis-color:rgb(0, 123, 255);-webkit-text-fill-color:rgb(0, 123, 255);-webkit-text-stroke-color:rgb(0, 123, 255);"/>
				<path d="M104.242,9.966h0.813V8.893l1.427-0.401v1.474h1.378v1.084h-1.378v2.534c0,0.708,0.188,1.061,0.742,1.061 c0.259,0,0.401-0.012,0.566-0.059l0.024,1.096c-0.213,0.082-0.601,0.154-1.049,0.154c-0.542,0-0.979-0.177-1.25-0.472 c-0.318-0.33-0.46-0.861-0.46-1.615V11.05h-0.813V9.966z" style="block-size:auto;border-block-end-color:rgb(0, 123, 255);border-block-start-color:rgb(0, 123, 255);border-bottom-color:rgb(0, 123, 255);border-inline-end-color:rgb(0, 123, 255);border-inline-start-color:rgb(0, 123, 255);border-left-color:rgb(0, 123, 255);border-right-color:rgb(0, 123, 255);border-top-color:rgb(0, 123, 255);caret-color:rgb(0, 123, 255);color:rgb(0, 123, 255);column-rule-color:rgb(0, 123, 255);cursor:pointer;d:path(&quot;M 104.242 9.966 H 105.055 V 8.893 L 106.482 8.492 V 9.966 H 107.86 V 11.05 H 106.482 V 13.584 C 106.482 14.292 106.67 14.645 107.224 14.645 C 107.483 14.645 107.625 14.633 107.79 14.586 L 107.814 15.682 C 107.601 15.764 107.213 15.836 106.765 15.836 C 106.223 15.836 105.786 15.659 105.515 15.364 C 105.197 15.034 105.055 14.503 105.055 13.749 V 11.05 H 104.242 V 9.966 Z&quot;);fill:rgb(255, 255, 255);font-family:DD-TTNorms;font-size:14px;height:auto;inline-size:auto;letter-spacing:normal;line-height:14px;outline-color:rgb(0, 123, 255);overflow-x:visible;overflow-y:visible;perspective-origin:0px 0px;text-align:center;text-decoration:none solid rgb(0, 123, 255);text-decoration-color:rgb(0, 123, 255);transform-origin:0px 0px;vertical-align:baseline;width:auto;-webkit-text-emphasis-color:rgb(0, 123, 255);-webkit-text-fill-color:rgb(0, 123, 255);-webkit-text-stroke-color:rgb(0, 123, 255);"/>
				<path d="M110.598,25.718c-0.244-0.044-0.506-0.063-0.78-0.063c-0.871,0-1.542,0.329-2.017,0.984 c-0.414,0.582-0.619,1.306-0.619,2.199v5.847h-2.476v-7.639c0-1.277-0.022-2.447-0.066-3.505h2.155l0.092,2.133h0.068 c0.258-0.731,0.669-1.322,1.238-1.762c0.551-0.402,1.149-0.595,1.791-0.595c0.227,0,0.435,0.012,0.615,0.042V25.718z" style="block-size:auto;border-block-end-color:rgb(0, 123, 255);border-block-start-color:rgb(0, 123, 255);border-bottom-color:rgb(0, 123, 255);border-inline-end-color:rgb(0, 123, 255);border-inline-start-color:rgb(0, 123, 255);border-left-color:rgb(0, 123, 255);border-right-color:rgb(0, 123, 255);border-top-color:rgb(0, 123, 255);caret-color:rgb(0, 123, 255);color:rgb(0, 123, 255);column-rule-color:rgb(0, 123, 255);cursor:pointer;d:path(&quot;M 110.598 25.718 C 110.354 25.674 110.092 25.655 109.818 25.655 C 108.947 25.655 108.276 25.984 107.801 26.639 C 107.387 27.221 107.182 27.945 107.182 28.838 V 34.685 H 104.706 V 27.046 C 104.706 25.769 104.684 24.599 104.64 23.541 H 106.795 L 106.887 25.674 H 106.955 C 107.213 24.943 107.624 24.352 108.193 23.912 C 108.744 23.51 109.342 23.317 109.984 23.317 C 110.211 23.317 110.419 23.329 110.599 23.359 V 25.718 Z&quot;);fill:rgb(255, 255, 255);font-family:DD-TTNorms;font-size:14px;height:auto;inline-size:auto;letter-spacing:normal;line-height:14px;outline-color:rgb(0, 123, 255);overflow-x:visible;overflow-y:visible;perspective-origin:0px 0px;text-align:center;text-decoration:none solid rgb(0, 123, 255);text-decoration-color:rgb(0, 123, 255);transform-origin:0px 0px;vertical-align:baseline;width:auto;-webkit-text-emphasis-color:rgb(0, 123, 255);-webkit-text-fill-color:rgb(0, 123, 255);-webkit-text-stroke-color:rgb(0, 123, 255);"/>
				<path d="M110.974,12.264v3.442h-1.449V7.338h1.449v3.406h0.024c0.177-0.271,0.425-0.495,0.719-0.648 c0.295-0.166,0.636-0.26,1.002-0.26c0.978,0,2.004,0.648,2.004,2.487v3.383h-1.45v-3.229c0-0.825-0.307-1.462-1.108-1.462 c-0.566,0-0.967,0.378-1.131,0.814C110.986,11.958,110.974,12.111,110.974,12.264z" style="block-size:auto;border-block-end-color:rgb(0, 123, 255);border-block-start-color:rgb(0, 123, 255);border-bottom-color:rgb(0, 123, 255);border-inline-end-color:rgb(0, 123, 255);border-inline-start-color:rgb(0, 123, 255);border-left-color:rgb(0, 123, 255);border-right-color:rgb(0, 123, 255);border-top-color:rgb(0, 123, 255);caret-color:rgb(0, 123, 255);color:rgb(0, 123, 255);column-rule-color:rgb(0, 123, 255);cursor:pointer;d:path(&quot;M 110.974 12.264 V 15.706 H 109.525 V 7.338 H 110.974 V 10.744 H 110.998 C 111.175 10.473 111.423 10.249 111.717 10.096 C 112.012 9.93 112.353 9.836 112.719 9.836 C 113.697 9.836 114.723 10.484 114.723 12.323 V 15.706 H 113.273 V 12.477 C 113.273 11.652 112.966 11.015 112.165 11.015 C 111.599 11.015 111.198 11.393 111.034 11.829 C 110.986 11.958 110.974 12.111 110.974 12.264 Z&quot;);fill:rgb(255, 255, 255);font-family:DD-TTNorms;font-size:14px;height:auto;inline-size:auto;letter-spacing:normal;line-height:14px;outline-color:rgb(0, 123, 255);overflow-x:visible;overflow-y:visible;perspective-origin:0px 0px;text-align:center;text-decoration:none solid rgb(0, 123, 255);text-decoration-color:rgb(0, 123, 255);transform-origin:0px 0px;vertical-align:baseline;width:auto;-webkit-text-emphasis-color:rgb(0, 123, 255);-webkit-text-fill-color:rgb(0, 123, 255);-webkit-text-stroke-color:rgb(0, 123, 255);"/>
				<path d="M37.151,7.762H35.3l-2.547,7.944h1.497l0.684-2.251h2.511l0.718,2.251h1.567L37.151,7.762z M35.171,12.359 l0.612-1.957c0.13-0.472,0.26-1.025,0.377-1.485h0.025c0.118,0.459,0.247,1.001,0.401,1.485l0.624,1.957H35.171z" style="block-size:auto;border-block-end-color:rgb(0, 123, 255);border-block-start-color:rgb(0, 123, 255);border-bottom-color:rgb(0, 123, 255);border-inline-end-color:rgb(0, 123, 255);border-inline-start-color:rgb(0, 123, 255);border-left-color:rgb(0, 123, 255);border-right-color:rgb(0, 123, 255);border-top-color:rgb(0, 123, 255);caret-color:rgb(0, 123, 255);color:rgb(0, 123, 255);column-rule-color:rgb(0, 123, 255);cursor:pointer;d:path(&quot;M 37.151 7.762 H 35.3 L 32.753 15.706 H 34.25 L 34.934 13.455 H 37.445 L 38.163 15.706 H 39.73 L 37.151 7.762 Z M 35.171 12.359 L 35.783 10.402 C 35.913 9.93 36.043 9.377 36.16 8.917 H 36.185 C 36.303 9.376 36.432 9.918 36.586 10.402 L 37.21 12.359 H 35.171 Z&quot;);fill:rgb(255, 255, 255);font-family:DD-TTNorms;font-size:14px;height:auto;inline-size:auto;letter-spacing:normal;line-height:14px;outline-color:rgb(0, 123, 255);overflow-x:visible;overflow-y:visible;perspective-origin:0px 0px;text-align:center;text-decoration:none solid rgb(0, 123, 255);text-decoration-color:rgb(0, 123, 255);transform-origin:0px 0px;vertical-align:baseline;width:auto;-webkit-text-emphasis-color:rgb(0, 123, 255);-webkit-text-fill-color:rgb(0, 123, 255);-webkit-text-stroke-color:rgb(0, 123, 255);"/>
				<path d="M56.617,24.873c-0.884-1.042-1.978-1.558-3.293-1.558c-1.684,0-2.935,0.664-3.765,1.99h-0.043L49.38,23.54 h-2.178c0.063,1.252,0.095,2.47,0.095,3.662v12.001h2.475v-5.852c0.644,1.059,1.702,1.585,3.181,1.585 c1.366,0,2.514-0.489,3.434-1.464c1.033-1.103,1.548-2.595,1.548-4.496C57.934,27.282,57.493,25.911,56.617,24.873z M54.631,31.91 c-0.519,0.721-1.25,1.077-2.18,1.077c-0.794,0-1.44-0.281-1.936-0.834c-0.5-0.558-0.744-1.243-0.744-2.055v-1.855 c0-0.2,0.038-0.45,0.113-0.757c0.154-0.658,0.477-1.189,0.975-1.599c0.498-0.405,1.049-0.606,1.66-0.606 c0.903,0,1.62,0.374,2.158,1.104c0.49,0.701,0.731,1.597,0.731,2.679C55.408,30.245,55.151,31.192,54.631,31.91z" style="block-size:auto;border-block-end-color:rgb(0, 123, 255);border-block-start-color:rgb(0, 123, 255);border-bottom-color:rgb(0, 123, 255);border-inline-end-color:rgb(0, 123, 255);border-inline-start-color:rgb(0, 123, 255);border-left-color:rgb(0, 123, 255);border-right-color:rgb(0, 123, 255);border-top-color:rgb(0, 123, 255);caret-color:rgb(0, 123, 255);color:rgb(0, 123, 255);column-rule-color:rgb(0, 123, 255);cursor:pointer;d:path(&quot;M 56.617 24.873 C 55.733 23.831 54.639 23.315 53.324 23.315 C 51.64 23.315 50.389 23.979 49.559 25.305 H 49.516 L 49.38 23.54 H 47.202 C 47.265 24.792 47.297 26.01 47.297 27.202 V 39.203 H 49.772 V 33.351 C 50.416 34.41 51.474 34.936 52.953 34.936 C 54.319 34.936 55.467 34.447 56.387 33.472 C 57.42 32.369 57.935 30.877 57.935 28.976 C 57.934 27.282 57.493 25.911 56.617 24.873 Z M 54.631 31.91 C 54.112 32.631 53.381 32.987 52.451 32.987 C 51.657 32.987 51.011 32.706 50.515 32.153 C 50.015 31.595 49.771 30.91 49.771 30.098 V 28.243 C 49.771 28.043 49.809 27.793 49.884 27.486 C 50.038 26.828 50.361 26.297 50.859 25.887 C 51.357 25.482 51.908 25.281 52.519 25.281 C 53.422 25.281 54.139 25.655 54.677 26.385 C 55.167 27.086 55.408 27.982 55.408 29.064 C 55.408 30.245 55.151 31.192 54.631 31.91 Z&quot;);fill:rgb(255, 255, 255);font-family:DD-TTNorms;font-size:14px;height:auto;inline-size:auto;letter-spacing:normal;line-height:14px;outline-color:rgb(0, 123, 255);overflow-x:visible;overflow-y:visible;perspective-origin:0px 0px;text-align:center;text-decoration:none solid rgb(0, 123, 255);text-decoration-color:rgb(0, 123, 255);transform-origin:0px 0px;vertical-align:baseline;width:auto;-webkit-text-emphasis-color:rgb(0, 123, 255);-webkit-text-fill-color:rgb(0, 123, 255);-webkit-text-stroke-color:rgb(0, 123, 255);"/>
				<path d="M101.728,24.944c-0.994-1.09-2.307-1.628-3.949-1.628c-1.697,0-3.042,0.543-4.044,1.648 c-1.001,1.099-1.5,2.515-1.5,4.241c0,1.648,0.483,3.022,1.453,4.105c0.969,1.086,2.277,1.627,3.915,1.627 c1.693,0,3.053-0.564,4.08-1.693c0.978-1.104,1.464-2.505,1.464-4.222C103.147,27.357,102.673,25.992,101.728,24.944z M99.888,31.725c-0.532,0.906-1.276,1.351-2.218,1.351c-0.968,0-1.717-0.44-2.247-1.324c-0.448-0.731-0.668-1.605-0.668-2.63 c0-1.053,0.219-1.942,0.668-2.671c0.517-0.885,1.275-1.325,2.265-1.325c0.964,0,1.703,0.44,2.23,1.325 c0.441,0.729,0.662,1.608,0.662,2.628S100.35,30.986,99.888,31.725z" style="block-size:auto;border-block-end-color:rgb(0, 123, 255);border-block-start-color:rgb(0, 123, 255);border-bottom-color:rgb(0, 123, 255);border-inline-end-color:rgb(0, 123, 255);border-inline-start-color:rgb(0, 123, 255);border-left-color:rgb(0, 123, 255);border-right-color:rgb(0, 123, 255);border-top-color:rgb(0, 123, 255);caret-color:rgb(0, 123, 255);color:rgb(0, 123, 255);column-rule-color:rgb(0, 123, 255);cursor:pointer;d:path(&quot;M 101.728 24.944 C 100.734 23.854 99.421 23.316 97.779 23.316 C 96.082 23.316 94.737 23.859 93.735 24.964 C 92.734 26.063 92.235 27.479 92.235 29.205 C 92.235 30.853 92.718 32.227 93.688 33.31 C 94.657 34.396 95.965 34.937 97.603 34.937 C 99.296 34.937 100.656 34.373 101.683 33.244 C 102.661 32.14 103.147 30.739 103.147 29.022 C 103.147 27.357 102.673 25.992 101.728 24.944 Z M 99.888 31.725 C 99.356 32.631 98.612 33.076 97.67 33.076 C 96.702 33.076 95.953 32.636 95.423 31.752 C 94.975 31.021 94.755 30.147 94.755 29.122 C 94.755 28.069 94.974 27.18 95.423 26.451 C 95.94 25.566 96.698 25.126 97.688 25.126 C 98.652 25.126 99.391 25.566 99.918 26.451 C 100.359 27.18 100.58 28.059 100.58 29.079 S 100.35 30.986 99.888 31.725 Z&quot;);fill:rgb(255, 255, 255);font-family:DD-TTNorms;font-size:14px;height:auto;inline-size:auto;letter-spacing:normal;line-height:14px;outline-color:rgb(0, 123, 255);overflow-x:visible;overflow-y:visible;perspective-origin:0px 0px;text-align:center;text-decoration:none solid rgb(0, 123, 255);text-decoration-color:rgb(0, 123, 255);transform-origin:0px 0px;vertical-align:baseline;width:auto;-webkit-text-emphasis-color:rgb(0, 123, 255);-webkit-text-fill-color:rgb(0, 123, 255);-webkit-text-stroke-color:rgb(0, 123, 255);"/>
				<path d="M68.858,24.873c-0.879-1.042-1.976-1.558-3.291-1.558c-1.681,0-2.93,0.664-3.761,1.99h-0.043L61.62,23.54 h-2.173c0.06,1.252,0.092,2.47,0.092,3.662v12.001h2.477v-5.852c0.644,1.059,1.704,1.585,3.179,1.585 c1.369,0,2.512-0.489,3.435-1.464c1.033-1.103,1.548-2.595,1.548-4.496C70.177,27.282,69.739,25.911,68.858,24.873z M66.876,31.91 c-0.52,0.721-1.245,1.077-2.182,1.077c-0.791,0-1.438-0.281-1.934-0.834c-0.499-0.558-0.744-1.243-0.744-2.055v-1.855 c0-0.2,0.036-0.45,0.112-0.757c0.154-0.658,0.48-1.189,0.977-1.599c0.499-0.405,1.047-0.606,1.661-0.606 c0.901,0,1.62,0.374,2.159,1.104c0.488,0.701,0.734,1.597,0.734,2.679C67.658,30.245,67.397,31.192,66.876,31.91z" style="block-size:auto;border-block-end-color:rgb(0, 123, 255);border-block-start-color:rgb(0, 123, 255);border-bottom-color:rgb(0, 123, 255);border-inline-end-color:rgb(0, 123, 255);border-inline-start-color:rgb(0, 123, 255);border-left-color:rgb(0, 123, 255);border-right-color:rgb(0, 123, 255);border-top-color:rgb(0, 123, 255);caret-color:rgb(0, 123, 255);color:rgb(0, 123, 255);column-rule-color:rgb(0, 123, 255);cursor:pointer;d:path(&quot;M 68.858 24.873 C 67.979 23.831 66.882 23.315 65.567 23.315 C 63.886 23.315 62.637 23.979 61.806 25.305 H 61.763 L 61.62 23.54 H 59.447 C 59.507 24.792 59.539 26.01 59.539 27.202 V 39.203 H 62.016 V 33.351 C 62.66 34.41 63.72 34.936 65.195 34.936 C 66.564 34.936 67.707 34.447 68.63 33.472 C 69.663 32.369 70.178 30.877 70.178 28.976 C 70.177 27.282 69.739 25.911 68.858 24.873 Z M 66.876 31.91 C 66.356 32.631 65.631 32.987 64.694 32.987 C 63.903 32.987 63.256 32.706 62.76 32.153 C 62.261 31.595 62.016 30.91 62.016 30.098 V 28.243 C 62.016 28.043 62.052 27.793 62.128 27.486 C 62.282 26.828 62.608 26.297 63.105 25.887 C 63.604 25.482 64.152 25.281 64.766 25.281 C 65.667 25.281 66.386 25.655 66.925 26.385 C 67.413 27.086 67.659 27.982 67.659 29.064 C 67.658 30.245 67.397 31.192 66.876 31.91 Z&quot;);fill:rgb(255, 255, 255);font-family:DD-TTNorms;font-size:14px;height:auto;inline-size:auto;letter-spacing:normal;line-height:14px;outline-color:rgb(0, 123, 255);overflow-x:visible;overflow-y:visible;perspective-origin:0px 0px;text-align:center;text-decoration:none solid rgb(0, 123, 255);text-decoration-color:rgb(0, 123, 255);transform-origin:0px 0px;vertical-align:baseline;width:auto;-webkit-text-emphasis-color:rgb(0, 123, 255);-webkit-text-fill-color:rgb(0, 123, 255);-webkit-text-stroke-color:rgb(0, 123, 255);"/>
				<path d="M40.783,19.231h-3.076l-4.971,15.453h2.565l1.378-4.536h5.023l1.443,4.536h2.639L40.783,19.231z M37.113,28.243 l1.284-4.036c0.339-1.286,0.581-2.255,0.736-2.912h0.043c0.38,1.526,0.643,2.497,0.784,2.912l1.302,4.036H37.113z" style="block-size:auto;border-block-end-color:rgb(0, 123, 255);border-block-start-color:rgb(0, 123, 255);border-bottom-color:rgb(0, 123, 255);border-inline-end-color:rgb(0, 123, 255);border-inline-start-color:rgb(0, 123, 255);border-left-color:rgb(0, 123, 255);border-right-color:rgb(0, 123, 255);border-top-color:rgb(0, 123, 255);caret-color:rgb(0, 123, 255);color:rgb(0, 123, 255);column-rule-color:rgb(0, 123, 255);cursor:pointer;d:path(&quot;M 40.783 19.231 H 37.707 L 32.736 34.684 H 35.301 L 36.679 30.148 H 41.702 L 43.145 34.684 H 45.784 L 40.783 19.231 Z M 37.113 28.243 L 38.397 24.207 C 38.736 22.921 38.978 21.952 39.133 21.295 H 39.176 C 39.556 22.821 39.819 23.792 39.96 24.207 L 41.262 28.243 H 37.113 Z&quot;);fill:rgb(255, 255, 255);font-family:DD-TTNorms;font-size:14px;height:auto;inline-size:auto;letter-spacing:normal;line-height:14px;outline-color:rgb(0, 123, 255);overflow-x:visible;overflow-y:visible;perspective-origin:0px 0px;text-align:center;text-decoration:none solid rgb(0, 123, 255);text-decoration-color:rgb(0, 123, 255);transform-origin:0px 0px;vertical-align:baseline;width:auto;-webkit-text-emphasis-color:rgb(0, 123, 255);-webkit-text-fill-color:rgb(0, 123, 255);-webkit-text-stroke-color:rgb(0, 123, 255);"/>
				<path d="M121.284,28.587c0-1.391-0.331-2.562-0.986-3.513c-0.823-1.191-2.036-1.786-3.646-1.786 c-1.633,0-2.932,0.595-3.9,1.786c-0.915,1.121-1.376,2.516-1.376,4.201c0,1.711,0.497,3.075,1.482,4.091 c0.986,1.016,2.343,1.522,4.066,1.522c1.441,0,2.689-0.224,3.74-0.686l-0.39-1.722c-0.902,0.357-1.901,0.532-3.004,0.532 c-0.995,0-1.804-0.26-2.429-0.781c-0.69-0.58-1.05-1.418-1.079-2.517h7.43C121.252,29.402,121.284,29.027,121.284,28.587z M113.764,27.941c0.074-0.745,0.321-1.388,0.734-1.922c0.506-0.668,1.163-1.014,1.971-1.014c0.885,0,1.544,0.349,1.974,1.034 c0.335,0.538,0.492,1.17,0.479,1.901H113.764z" style="block-size:auto;border-block-end-color:rgb(0, 123, 255);border-block-start-color:rgb(0, 123, 255);border-bottom-color:rgb(0, 123, 255);border-inline-end-color:rgb(0, 123, 255);border-inline-start-color:rgb(0, 123, 255);border-left-color:rgb(0, 123, 255);border-right-color:rgb(0, 123, 255);border-top-color:rgb(0, 123, 255);caret-color:rgb(0, 123, 255);color:rgb(0, 123, 255);column-rule-color:rgb(0, 123, 255);cursor:pointer;d:path(&quot;M 121.284 28.587 C 121.284 27.196 120.953 26.025 120.298 25.074 C 119.475 23.883 118.262 23.288 116.652 23.288 C 115.019 23.288 113.72 23.883 112.752 25.074 C 111.837 26.195 111.376 27.59 111.376 29.275 C 111.376 30.986 111.873 32.35 112.858 33.366 C 113.844 34.382 115.201 34.888 116.924 34.888 C 118.365 34.888 119.613 34.664 120.664 34.202 L 120.274 32.48 C 119.372 32.837 118.373 33.012 117.27 33.012 C 116.275 33.012 115.466 32.752 114.841 32.231 C 114.151 31.651 113.791 30.813 113.762 29.714 H 121.192 C 121.252 29.402 121.284 29.027 121.284 28.587 Z M 113.764 27.941 C 113.838 27.196 114.085 26.553 114.498 26.019 C 115.004 25.351 115.661 25.005 116.469 25.005 C 117.354 25.005 118.013 25.354 118.443 26.039 C 118.778 26.577 118.935 27.209 118.922 27.94 H 113.764 Z&quot;);fill:rgb(255, 255, 255);font-family:DD-TTNorms;font-size:14px;height:auto;inline-size:auto;letter-spacing:normal;line-height:14px;outline-color:rgb(0, 123, 255);overflow-x:visible;overflow-y:visible;perspective-origin:0px 0px;text-align:center;text-decoration:none solid rgb(0, 123, 255);text-decoration-color:rgb(0, 123, 255);transform-origin:0px 0px;vertical-align:baseline;width:auto;-webkit-text-emphasis-color:rgb(0, 123, 255);-webkit-text-fill-color:rgb(0, 123, 255);-webkit-text-stroke-color:rgb(0, 123, 255);"/>
				<path d="M70.542,9.837c-0.861,0-1.486,0.365-1.839,0.919h-0.024V7.338h-1.449v6.753c0,0.59-0.024,1.226-0.047,1.615 h1.238l0.07-0.86h0.024c0.412,0.708,1.072,0.99,1.815,0.99c1.297,0,2.605-1.025,2.605-3.089 C72.946,11.003,71.945,9.837,70.542,9.837z M70,14.692c-0.624,0-1.131-0.425-1.284-1.013c-0.024-0.106-0.036-0.224-0.036-0.342 v-0.931c0-0.142,0.024-0.271,0.048-0.378c0.153-0.636,0.695-1.061,1.284-1.061c0.966,0,1.449,0.825,1.449,1.839 C71.461,13.973,70.908,14.692,70,14.692z" style="block-size:auto;border-block-end-color:rgb(0, 123, 255);border-block-start-color:rgb(0, 123, 255);border-bottom-color:rgb(0, 123, 255);border-inline-end-color:rgb(0, 123, 255);border-inline-start-color:rgb(0, 123, 255);border-left-color:rgb(0, 123, 255);border-right-color:rgb(0, 123, 255);border-top-color:rgb(0, 123, 255);caret-color:rgb(0, 123, 255);color:rgb(0, 123, 255);column-rule-color:rgb(0, 123, 255);cursor:pointer;d:path(&quot;M 70.542 9.837 C 69.681 9.837 69.056 10.202 68.703 10.756 H 68.679 V 7.338 H 67.23 V 14.091 C 67.23 14.681 67.206 15.317 67.183 15.706 H 68.421 L 68.491 14.846 H 68.515 C 68.927 15.554 69.587 15.836 70.33 15.836 C 71.627 15.836 72.935 14.811 72.935 12.747 C 72.946 11.003 71.945 9.837 70.542 9.837 Z M 70 14.692 C 69.376 14.692 68.869 14.267 68.716 13.679 C 68.692 13.573 68.68 13.455 68.68 13.337 V 12.406 C 68.68 12.264 68.704 12.135 68.728 12.028 C 68.881 11.392 69.423 10.967 70.012 10.967 C 70.978 10.967 71.461 11.792 71.461 12.806 C 71.461 13.973 70.908 14.692 70 14.692 Z&quot;);fill:rgb(255, 255, 255);font-family:DD-TTNorms;font-size:14px;height:auto;inline-size:auto;letter-spacing:normal;line-height:14px;outline-color:rgb(0, 123, 255);overflow-x:visible;overflow-y:visible;perspective-origin:0px 0px;text-align:center;text-decoration:none solid rgb(0, 123, 255);text-decoration-color:rgb(0, 123, 255);transform-origin:0px 0px;vertical-align:baseline;width:auto;-webkit-text-emphasis-color:rgb(0, 123, 255);-webkit-text-fill-color:rgb(0, 123, 255);-webkit-text-stroke-color:rgb(0, 123, 255);"/>
				<path d="M83.005,12.63c0-1.261-0.614-2.794-2.475-2.794c-1.839,0-2.805,1.497-2.805,3.089 c0,1.756,1.096,2.899,2.958,2.899c0.825,0,1.508-0.153,2.003-0.365l-0.212-0.991c-0.448,0.154-0.919,0.259-1.591,0.259 c-0.931,0-1.733-0.448-1.768-1.485h3.842C82.981,13.114,83.005,12.901,83.005,12.63z M79.115,12.229 c0.059-0.589,0.436-1.403,1.332-1.403c0.966,0,1.202,0.872,1.19,1.403H79.115z" style="block-size:auto;border-block-end-color:rgb(0, 123, 255);border-block-start-color:rgb(0, 123, 255);border-bottom-color:rgb(0, 123, 255);border-inline-end-color:rgb(0, 123, 255);border-inline-start-color:rgb(0, 123, 255);border-left-color:rgb(0, 123, 255);border-right-color:rgb(0, 123, 255);border-top-color:rgb(0, 123, 255);caret-color:rgb(0, 123, 255);color:rgb(0, 123, 255);column-rule-color:rgb(0, 123, 255);cursor:pointer;d:path(&quot;M 83.005 12.63 C 83.005 11.369 82.391 9.836 80.53 9.836 C 78.691 9.836 77.725 11.333 77.725 12.925 C 77.725 14.681 78.821 15.824 80.683 15.824 C 81.508 15.824 82.191 15.671 82.686 15.459 L 82.474 14.468 C 82.026 14.622 81.555 14.727 80.883 14.727 C 79.952 14.727 79.15 14.279 79.115 13.242 H 82.957 C 82.981 13.114 83.005 12.901 83.005 12.63 Z M 79.115 12.229 C 79.174 11.64 79.551 10.826 80.447 10.826 C 81.413 10.826 81.649 11.698 81.637 12.229 H 79.115 Z&quot;);fill:rgb(255, 255, 255);font-family:DD-TTNorms;font-size:14px;height:auto;inline-size:auto;letter-spacing:normal;line-height:14px;outline-color:rgb(0, 123, 255);overflow-x:visible;overflow-y:visible;perspective-origin:0px 0px;text-align:center;text-decoration:none solid rgb(0, 123, 255);text-decoration-color:rgb(0, 123, 255);transform-origin:0px 0px;vertical-align:baseline;width:auto;-webkit-text-emphasis-color:rgb(0, 123, 255);-webkit-text-fill-color:rgb(0, 123, 255);-webkit-text-stroke-color:rgb(0, 123, 255);"/>
				<path d="M90.221,9.837c-1.733,0-2.97,1.155-2.97,3.041c0,1.85,1.261,2.958,2.876,2.958c1.461,0,2.947-0.943,2.947-3.053 C93.074,11.039,91.93,9.837,90.221,9.837z M90.175,14.787c-0.873,0-1.427-0.837-1.427-1.945c0-0.955,0.412-1.956,1.438-1.956 c0.99,0,1.391,1.037,1.391,1.933C91.577,13.985,91,14.787,90.175,14.787z" style="block-size:auto;border-block-end-color:rgb(0, 123, 255);border-block-start-color:rgb(0, 123, 255);border-bottom-color:rgb(0, 123, 255);border-inline-end-color:rgb(0, 123, 255);border-inline-start-color:rgb(0, 123, 255);border-left-color:rgb(0, 123, 255);border-right-color:rgb(0, 123, 255);border-top-color:rgb(0, 123, 255);caret-color:rgb(0, 123, 255);color:rgb(0, 123, 255);column-rule-color:rgb(0, 123, 255);cursor:pointer;d:path(&quot;M 90.221 9.837 C 88.488 9.837 87.251 10.992 87.251 12.878 C 87.251 14.728 88.512 15.836 90.127 15.836 C 91.588 15.836 93.074 14.893 93.074 12.783 C 93.074 11.039 91.93 9.837 90.221 9.837 Z M 90.175 14.787 C 89.302 14.787 88.748 13.95 88.748 12.842 C 88.748 11.887 89.16 10.886 90.186 10.886 C 91.176 10.886 91.577 11.923 91.577 12.819 C 91.577 13.985 91 14.787 90.175 14.787 Z&quot;);fill:rgb(255, 255, 255);font-family:DD-TTNorms;font-size:14px;height:auto;inline-size:auto;letter-spacing:normal;line-height:14px;outline-color:rgb(0, 123, 255);overflow-x:visible;overflow-y:visible;perspective-origin:0px 0px;text-align:center;text-decoration:none solid rgb(0, 123, 255);text-decoration-color:rgb(0, 123, 255);transform-origin:0px 0px;vertical-align:baseline;width:auto;-webkit-text-emphasis-color:rgb(0, 123, 255);-webkit-text-fill-color:rgb(0, 123, 255);-webkit-text-stroke-color:rgb(0, 123, 255);"/>
				<path d="M65.708,14.327v-2.063c0-1.261-0.531-2.428-2.37-2.428c-0.907,0-1.65,0.247-2.074,0.507l0.283,0.943 c0.389-0.247,0.978-0.425,1.544-0.425c1.013,0,1.166,0.625,1.166,1.002v0.094c-2.122-0.012-3.406,0.731-3.406,2.169 c0,0.872,0.648,1.709,1.804,1.709c0.754,0,1.356-0.319,1.697-0.766h0.035l0.106,0.636h1.308 C65.731,15.353,65.708,14.846,65.708,14.327z M64.293,13.69c0,0.106,0,0.213-0.035,0.319c-0.141,0.413-0.554,0.79-1.144,0.79 c-0.459,0-0.825-0.26-0.825-0.825c0-0.872,0.978-1.084,2.003-1.072V13.69z" style="block-size:auto;border-block-end-color:rgb(0, 123, 255);border-block-start-color:rgb(0, 123, 255);border-bottom-color:rgb(0, 123, 255);border-inline-end-color:rgb(0, 123, 255);border-inline-start-color:rgb(0, 123, 255);border-left-color:rgb(0, 123, 255);border-right-color:rgb(0, 123, 255);border-top-color:rgb(0, 123, 255);caret-color:rgb(0, 123, 255);color:rgb(0, 123, 255);column-rule-color:rgb(0, 123, 255);cursor:pointer;d:path(&quot;M 65.708 14.327 V 12.264 C 65.708 11.003 65.177 9.836 63.338 9.836 C 62.431 9.836 61.688 10.083 61.264 10.343 L 61.547 11.286 C 61.936 11.039 62.525 10.861 63.091 10.861 C 64.104 10.861 64.257 11.486 64.257 11.863 V 11.957 C 62.135 11.945 60.851 12.688 60.851 14.126 C 60.851 14.998 61.499 15.835 62.655 15.835 C 63.409 15.835 64.011 15.516 64.352 15.069 H 64.387 L 64.493 15.705 H 65.801 C 65.731 15.353 65.708 14.846 65.708 14.327 Z M 64.293 13.69 C 64.293 13.796 64.293 13.903 64.258 14.009 C 64.117 14.422 63.704 14.799 63.114 14.799 C 62.655 14.799 62.289 14.539 62.289 13.974 C 62.289 13.102 63.267 12.89 64.292 12.902 V 13.69 Z&quot;);fill:rgb(255, 255, 255);font-family:DD-TTNorms;font-size:14px;height:auto;inline-size:auto;letter-spacing:normal;line-height:14px;outline-color:rgb(0, 123, 255);overflow-x:visible;overflow-y:visible;perspective-origin:0px 0px;text-align:center;text-decoration:none solid rgb(0, 123, 255);text-decoration-color:rgb(0, 123, 255);transform-origin:0px 0px;vertical-align:baseline;width:auto;-webkit-text-emphasis-color:rgb(0, 123, 255);-webkit-text-fill-color:rgb(0, 123, 255);-webkit-text-stroke-color:rgb(0, 123, 255);"/>
				<path d="M121.231,12.63c0-1.261-0.614-2.794-2.475-2.794c-1.839,0-2.805,1.497-2.805,3.089 c0,1.756,1.096,2.899,2.958,2.899c0.825,0,1.508-0.153,2.003-0.365l-0.212-0.991c-0.447,0.154-0.919,0.259-1.591,0.259 c-0.931,0-1.733-0.448-1.768-1.485h3.842C121.207,13.114,121.231,12.901,121.231,12.63z M117.341,12.229 c0.059-0.589,0.436-1.403,1.332-1.403c0.966,0,1.203,0.872,1.19,1.403H117.341z" style="block-size:auto;border-block-end-color:rgb(0, 123, 255);border-block-start-color:rgb(0, 123, 255);border-bottom-color:rgb(0, 123, 255);border-inline-end-color:rgb(0, 123, 255);border-inline-start-color:rgb(0, 123, 255);border-left-color:rgb(0, 123, 255);border-right-color:rgb(0, 123, 255);border-top-color:rgb(0, 123, 255);caret-color:rgb(0, 123, 255);color:rgb(0, 123, 255);column-rule-color:rgb(0, 123, 255);cursor:pointer;d:path(&quot;M 121.231 12.63 C 121.231 11.369 120.617 9.836 118.756 9.836 C 116.917 9.836 115.951 11.333 115.951 12.925 C 115.951 14.681 117.047 15.824 118.909 15.824 C 119.734 15.824 120.417 15.671 120.912 15.459 L 120.7 14.468 C 120.253 14.622 119.781 14.727 119.109 14.727 C 118.178 14.727 117.376 14.279 117.341 13.242 H 121.183 C 121.207 13.114 121.231 12.901 121.231 12.63 Z M 117.341 12.229 C 117.4 11.64 117.777 10.826 118.673 10.826 C 119.639 10.826 119.876 11.698 119.863 12.229 H 117.341 Z&quot;);fill:rgb(255, 255, 255);font-family:DD-TTNorms;font-size:14px;height:auto;inline-size:auto;letter-spacing:normal;line-height:14px;outline-color:rgb(0, 123, 255);overflow-x:visible;overflow-y:visible;perspective-origin:0px 0px;text-align:center;text-decoration:none solid rgb(0, 123, 255);text-decoration-color:rgb(0, 123, 255);transform-origin:0px 0px;vertical-align:baseline;width:auto;-webkit-text-emphasis-color:rgb(0, 123, 255);-webkit-text-fill-color:rgb(0, 123, 255);-webkit-text-stroke-color:rgb(0, 123, 255);"/>
				<path d="M51.547,14.327v-2.063c0-1.261-0.531-2.428-2.369-2.428c-0.908,0-1.651,0.247-2.075,0.507l0.283,0.943 c0.389-0.247,0.978-0.425,1.544-0.425c1.013,0,1.167,0.625,1.167,1.002v0.094c-2.122-0.012-3.406,0.731-3.406,2.169 c0,0.872,0.648,1.709,1.803,1.709c0.754,0,1.355-0.319,1.697-0.766h0.035l0.106,0.636h1.309 C51.57,15.353,51.547,14.846,51.547,14.327z M50.132,13.69c0,0.106,0,0.213-0.034,0.319c-0.142,0.413-0.555,0.79-1.144,0.79 c-0.46,0-0.825-0.26-0.825-0.825c0-0.872,0.978-1.084,2.003-1.072V13.69z" style="block-size:auto;border-block-end-color:rgb(0, 123, 255);border-block-start-color:rgb(0, 123, 255);border-bottom-color:rgb(0, 123, 255);border-inline-end-color:rgb(0, 123, 255);border-inline-start-color:rgb(0, 123, 255);border-left-color:rgb(0, 123, 255);border-right-color:rgb(0, 123, 255);border-top-color:rgb(0, 123, 255);caret-color:rgb(0, 123, 255);color:rgb(0, 123, 255);column-rule-color:rgb(0, 123, 255);cursor:pointer;d:path(&quot;M 51.547 14.327 V 12.264 C 51.547 11.003 51.016 9.836 49.178 9.836 C 48.27 9.836 47.527 10.083 47.103 10.343 L 47.386 11.286 C 47.775 11.039 48.364 10.861 48.93 10.861 C 49.943 10.861 50.097 11.486 50.097 11.863 V 11.957 C 47.975 11.945 46.691 12.688 46.691 14.126 C 46.691 14.998 47.339 15.835 48.494 15.835 C 49.248 15.835 49.849 15.516 50.191 15.069 H 50.226 L 50.332 15.705 H 51.641 C 51.57 15.353 51.547 14.846 51.547 14.327 Z M 50.132 13.69 C 50.132 13.796 50.132 13.903 50.098 14.009 C 49.956 14.422 49.543 14.799 48.954 14.799 C 48.494 14.799 48.129 14.539 48.129 13.974 C 48.129 13.102 49.107 12.89 50.132 12.902 V 13.69 Z&quot;);fill:rgb(255, 255, 255);font-family:DD-TTNorms;font-size:14px;height:auto;inline-size:auto;letter-spacing:normal;line-height:14px;outline-color:rgb(0, 123, 255);overflow-x:visible;overflow-y:visible;perspective-origin:0px 0px;text-align:center;text-decoration:none solid rgb(0, 123, 255);text-decoration-color:rgb(0, 123, 255);transform-origin:0px 0px;vertical-align:baseline;width:auto;-webkit-text-emphasis-color:rgb(0, 123, 255);-webkit-text-fill-color:rgb(0, 123, 255);-webkit-text-stroke-color:rgb(0, 123, 255);"/>
				<path d="M23.106,7.376H12.221c-1.4,0-2.542,1.138-2.542,2.537v24.19c0,1.4,1.141,2.534,2.542,2.534h10.886 c1.399,0,2.54-1.135,2.54-2.534V9.913C25.646,8.514,24.505,7.376,23.106,7.376z M16.4,9.947h2.524c0.165,0,0.3,0.135,0.3,0.302 c0,0.158-0.135,0.294-0.3,0.294H16.4c-0.16,0-0.298-0.136-0.298-0.294C16.102,10.082,16.24,9.947,16.4,9.947z M17.662,35.289 c-0.722,0-1.311-0.589-1.311-1.312c0-0.725,0.589-1.315,1.311-1.315c0.726,0,1.313,0.591,1.313,1.315 C18.974,34.7,18.387,35.289,17.662,35.289z M24.103,31.536h-12.88V12.487h12.88V31.536z" style="block-size:auto;border-block-end-color:rgb(0, 123, 255);border-block-start-color:rgb(0, 123, 255);border-bottom-color:rgb(0, 123, 255);border-inline-end-color:rgb(0, 123, 255);border-inline-start-color:rgb(0, 123, 255);border-left-color:rgb(0, 123, 255);border-right-color:rgb(0, 123, 255);border-top-color:rgb(0, 123, 255);caret-color:rgb(0, 123, 255);color:rgb(0, 123, 255);column-rule-color:rgb(0, 123, 255);cursor:pointer;d:path(&quot;M 23.106 7.376 H 12.221 C 10.821 7.376 9.679 8.514 9.679 9.913 V 34.103 C 9.679 35.503 10.82 36.637 12.221 36.637 H 23.107 C 24.506 36.637 25.647 35.502 25.647 34.103 V 9.913 C 25.646 8.514 24.505 7.376 23.106 7.376 Z M 16.4 9.947 H 18.924 C 19.089 9.947 19.224 10.082 19.224 10.249 C 19.224 10.407 19.089 10.543 18.924 10.543 H 16.4 C 16.24 10.543 16.102 10.407 16.102 10.249 C 16.102 10.082 16.24 9.947 16.4 9.947 Z M 17.662 35.289 C 16.94 35.289 16.351 34.7 16.351 33.977 C 16.351 33.252 16.94 32.662 17.662 32.662 C 18.388 32.662 18.975 33.253 18.975 33.977 C 18.974 34.7 18.387 35.289 17.662 35.289 Z M 24.103 31.536 H 11.223 V 12.487 H 24.103 V 31.536 Z&quot;);fill:rgb(255, 255, 255);font-family:DD-TTNorms;font-size:14px;height:auto;inline-size:auto;letter-spacing:normal;line-height:14px;outline-color:rgb(0, 123, 255);overflow-x:visible;overflow-y:visible;perspective-origin:0px 0px;text-align:center;text-decoration:none solid rgb(0, 123, 255);text-decoration-color:rgb(0, 123, 255);transform-origin:0px 0px;vertical-align:baseline;width:auto;-webkit-text-emphasis-color:rgb(0, 123, 255);-webkit-text-fill-color:rgb(0, 123, 255);-webkit-text-stroke-color:rgb(0, 123, 255);"/>
			</svg>