<svg width="202" height="35" viewBox="0 0 202 35" fill="none" xmlns="http://www.w3.org/2000/svg">
<path d="M36.0499 24.5138H40.8028V25.5422H37.1061V27.4878H40.0245V28.5162H37.1061V31.3235H36.0499V24.5138Z" fill="white"/>
<path d="M46.4452 24.4026C48.4742 24.4026 50.0307 25.9591 50.0307 27.9047C50.0307 29.8504 48.4742 31.4069 46.4452 31.4069C44.4161 31.4069 42.8596 29.8504 42.8596 27.9047C42.8596 25.9591 44.3883 24.4026 46.4452 24.4026ZM46.4452 30.4063C47.8627 30.4063 48.9745 29.2945 48.9745 27.8769C48.9745 26.4594 47.8627 25.3476 46.4452 25.3476C45.0276 25.3476 43.9158 26.4594 43.9158 27.8769C43.9158 29.2945 45.0276 30.4063 46.4452 30.4063Z" fill="white"/>
<path d="M52.8935 24.5138H55.7008C57.0072 24.5138 57.9244 25.431 57.9244 26.654C57.9244 28.1549 56.618 28.5996 56.618 28.5996L58.1468 31.3235H56.9238L55.5063 28.7942H53.8942V31.3235H52.838V24.5138H52.8935ZM55.7008 27.7936C56.3679 27.7936 56.8682 27.3211 56.8682 26.6262C56.8682 25.9313 56.3957 25.4588 55.7008 25.4588H53.9497V27.7936H55.7008Z" fill="white"/>
<path d="M64.3172 24.5138H65.29L67.8471 27.8214L70.4043 24.5138H71.3771V31.2957H70.3209V26.2927L67.8471 29.4335L65.3734 26.2927V31.2957H64.3172V24.5138V24.5138Z" fill="white"/>
<path d="M74.6847 24.5138H79.4932V25.5422H75.7687V27.2933H78.7149V28.3217H75.7687V30.3229H79.6044V31.3513H74.7125V24.5138H74.6847Z" fill="white"/>
<path d="M82.356 24.5138H85.1633C86.4696 24.5138 87.3869 25.431 87.3869 26.654C87.3869 28.1549 86.0805 28.5996 86.0805 28.5996L87.6092 31.3235H86.3863L84.9687 28.7942H83.3566V31.3235H82.3004V24.5138H82.356ZM85.1633 27.7936C85.8304 27.7936 86.3307 27.3211 86.3307 26.6262C86.3307 25.9313 85.8582 25.4588 85.1633 25.4588H83.4122V27.7936H85.1633Z" fill="white"/>
<path d="M96.3646 30.0449C96.3646 30.0449 95.3918 31.4069 93.5573 31.4069C91.5283 31.4069 89.9718 29.8504 89.9718 27.9047C89.9718 25.9591 91.5283 24.4026 93.5573 24.4026C95.3918 24.4026 96.309 25.7089 96.309 25.7089L95.6419 26.376C95.6419 26.376 94.9749 25.3476 93.5573 25.3476C92.1398 25.3476 91.028 26.4594 91.028 27.8769C91.028 29.2945 92.1398 30.4063 93.5573 30.4063C94.9749 30.4063 95.6975 29.3501 95.6975 29.3501L96.3646 30.0449Z" fill="white"/>
<path d="M98.9774 24.5138H100.034V27.3767H103.369V24.5138H104.425V31.2957H103.397V28.3217H100.061V31.2679H99.0052V24.5138H98.9774Z" fill="white"/>
<path d="M109.595 24.5138H110.762L113.486 31.2957H112.374L111.707 29.5447H108.678L108.011 31.2957H106.899L109.595 24.5138ZM111.29 28.5718L110.179 25.7646L109.067 28.5718H111.29Z" fill="white"/>
<path d="M115.904 24.5138H116.877L120.602 29.5169V24.5138H121.658V31.2957H120.685L116.961 26.2927V31.2957H115.904V24.5138Z" fill="white"/>
<path d="M126.216 25.5144H124.187V24.5138H129.329V25.5422H127.3V31.3235H126.244V25.5144H126.216Z" fill="white"/>
<path d="M131.886 29.6558C131.886 29.6558 132.414 30.4341 133.582 30.4341C134.443 30.4341 134.944 29.9615 134.944 29.4057C134.944 27.9047 131.358 28.822 131.358 26.2926C131.358 25.2642 132.22 24.4026 133.693 24.4026C135.111 24.4026 135.833 25.2642 135.833 25.2642L135.111 25.9869C135.111 25.9869 134.638 25.3476 133.693 25.3476C132.859 25.3476 132.442 25.7923 132.442 26.2648C132.442 27.7658 136.028 26.8485 136.028 29.3779C136.028 30.4341 135.111 31.3791 133.61 31.3791C131.97 31.3791 131.192 30.3507 131.192 30.3507L131.886 29.6558Z" fill="white"/>
<path d="M38.3012 6.41934V13.2569H40.0523C41.9146 13.2291 43.4155 11.7004 43.3877 9.8381C43.4433 8.00364 41.9979 6.47493 40.1635 6.41934C40.1357 6.41934 40.0801 6.41934 40.0523 6.41934H38.3012ZM40.0523 4.25134C43.3043 4.25134 45.778 6.72508 45.778 9.8381C45.778 12.9511 43.3043 15.4249 40.0523 15.4249H36.1888C36.0221 15.4249 35.9109 15.3137 35.9109 15.1469V4.55709C35.9109 4.39032 36.0221 4.27914 36.1888 4.27914L40.0523 4.25134Z" fill="white"/>
<path d="M54.2277 13.5071C56.2567 13.5071 57.8966 11.8672 57.8966 9.83817C57.8966 7.80915 56.2567 6.16925 54.2277 6.16925C52.1986 6.16925 50.5587 7.80915 50.5587 9.83817C50.5587 11.8672 52.1986 13.5071 54.2277 13.5071ZM54.2277 4.02905C57.6464 4.02905 60.2869 6.66956 60.2869 9.83817C60.2869 13.0068 57.6464 15.6473 54.2277 15.6473C50.8089 15.6473 48.1684 13.0068 48.1684 9.83817C48.1684 6.66956 50.8089 4.02905 54.2277 4.02905Z" fill="white"/>
<path d="M68.6254 13.5071C70.6545 13.5071 72.2944 11.8672 72.2944 9.83817C72.2944 7.80915 70.6545 6.16925 68.6254 6.16925C66.5964 6.16925 64.9565 7.80915 64.9565 9.83817C64.9565 11.8672 66.5964 13.5071 68.6254 13.5071ZM68.6254 4.02905C72.0442 4.02905 74.6847 6.66956 74.6847 9.83817C74.6847 13.0068 72.0442 15.6473 68.6254 15.6473C65.2067 15.6473 62.5662 13.0068 62.5662 9.83817C62.5662 6.66956 65.1789 4.02905 68.6254 4.02905Z" fill="white"/>
<path d="M82.6895 6.41937H80.2158V9.36562H82.6895C83.4956 9.39342 84.1627 8.78193 84.1905 7.97588C84.1905 7.94809 84.1905 7.94809 84.1905 7.92029C84.2182 7.11425 83.579 6.44717 82.7729 6.41937C82.7451 6.41937 82.7173 6.41937 82.6895 6.41937ZM77.8254 4.55712C77.8254 4.39035 77.9366 4.27917 78.1034 4.27917H82.7451C84.9687 4.27917 86.5808 5.89127 86.5808 7.94809C86.6086 9.33783 85.8303 10.5886 84.5796 11.2001L86.7198 14.9802C86.8032 15.1191 86.7754 15.2859 86.6364 15.3693C86.5808 15.3971 86.5252 15.4249 86.4696 15.4249H84.5796C84.4684 15.4249 84.385 15.3693 84.3294 15.2859L82.2726 11.5336H80.2158V15.1469C80.2158 15.3137 80.1046 15.4249 79.9378 15.4249H78.1312C77.9644 15.4249 77.8532 15.3137 77.8532 15.1469L77.8254 4.55712Z" fill="white"/>
<path d="M92.8069 6.44708V13.2846H94.5579C96.4202 13.2568 97.9211 11.7281 97.8933 9.86585C97.9489 8.03139 96.5036 6.50267 94.6691 6.44708C94.6413 6.44708 94.5857 6.44708 94.5579 6.44708H92.8069ZM94.5579 4.30688C97.8099 4.30688 100.284 6.78062 100.284 9.89364C100.284 13.0067 97.8099 15.4804 94.5579 15.4804H90.6945C90.5277 15.4804 90.4165 15.3692 90.4165 15.2024V4.61263C90.4165 4.44586 90.5277 4.33468 90.6945 4.33468L94.5579 4.30688Z" fill="white"/>
<path d="M107.566 7.03082L106.204 10.6997H108.9L107.566 7.03082ZM105.426 12.7566L104.536 15.2025C104.509 15.3137 104.397 15.3971 104.258 15.3971H102.341C102.202 15.4249 102.063 15.3137 102.035 15.1469C102.035 15.0913 102.035 15.0357 102.063 15.0079L106.232 4.44591C106.26 4.33473 106.399 4.25134 106.51 4.25134H108.65C108.761 4.25134 108.9 4.30693 108.928 4.44591L113.097 15.0079C113.153 15.1469 113.097 15.3137 112.958 15.3693C112.903 15.3971 112.875 15.3971 112.819 15.3971H110.901C110.79 15.3971 110.651 15.3137 110.623 15.2025L109.734 12.7566H105.426Z" fill="white"/>
<path d="M115.321 7.25327C115.321 5.5022 116.822 4.00128 119.212 4.00128C120.491 3.97349 121.741 4.446 122.686 5.33543C122.798 5.44661 122.798 5.64118 122.686 5.75236L121.602 6.83635C121.491 6.94753 121.324 6.94753 121.213 6.86415C120.713 6.39164 120.046 6.14148 119.351 6.14148C118.406 6.14148 117.683 6.69738 117.683 7.33666C117.683 9.42127 123.326 8.22609 123.326 12.2008C123.326 14.202 121.825 15.7029 119.101 15.7029C117.6 15.7307 116.155 15.147 115.071 14.0908C114.959 13.9796 114.959 13.8128 115.071 13.7017L116.099 12.6733C116.21 12.5621 116.377 12.5621 116.488 12.6733C117.155 13.3125 118.017 13.6461 118.934 13.6739C120.129 13.6739 120.907 13.0346 120.907 12.2285C120.963 10.0883 115.321 11.2835 115.321 7.25327Z" fill="white"/>
<path d="M133.61 4.52929V8.69851H128.829V4.52929C128.829 4.39032 128.718 4.25134 128.579 4.25134C128.579 4.25134 128.579 4.25134 128.551 4.25134H126.744C126.578 4.25134 126.466 4.36252 126.466 4.52929C126.466 4.52929 126.466 4.52929 126.466 4.55709V15.1191C126.466 15.2581 126.578 15.3971 126.717 15.3971C126.717 15.3971 126.717 15.3971 126.744 15.3971H128.551C128.718 15.3971 128.829 15.2859 128.829 15.1191C128.829 15.1191 128.829 15.1191 128.829 15.0913V10.8665H133.61V15.0913C133.61 15.2303 133.721 15.3693 133.86 15.3693H133.888H135.694C135.833 15.3693 135.972 15.2581 135.972 15.1191V15.0913V4.52929C135.972 4.39032 135.861 4.25134 135.722 4.25134H135.694H133.888C133.749 4.25134 133.61 4.36252 133.61 4.5015C133.61 4.52929 133.61 4.52929 133.61 4.52929Z" fill="white"/>
<path d="M26.5162 5.69671C25.2933 3.41754 22.9029 2 20.318 2H0.667075C0.305743 2 0 2.30574 0 2.69487C0 2.86164 0.0833844 3.02841 0.194564 3.16738L4.47496 7.47558C4.86409 7.8647 5.3644 8.05927 5.8925 8.05927H19.7343C20.7071 8.05927 21.541 8.83752 21.541 9.83814C21.541 10.8387 20.7627 11.6448 19.7621 11.6448H10.2285C9.86716 11.6448 9.56141 11.9505 9.56141 12.3397C9.56141 12.5064 9.6448 12.6732 9.75598 12.8122L14.0364 17.1204C14.4255 17.5095 14.9258 17.7041 15.4539 17.7041H19.7621C25.4045 17.6763 29.6293 11.6726 26.5162 5.69671Z" fill="white"/>
</svg>