<?xml version="1.0" standalone="no"?><!DOCTYPE svg PUBLIC "-//W3C//DTD SVG 1.1//EN" "http://www.w3.org/Graphics/SVG/1.1/DTD/svg11.dtd"><svg height="26px" width="26px" class="SVG_root___353jb" x="0px" y="0px" viewBox="0 0 24 24" version="1.1" xmlns="http://www.w3.org/2000/svg" xmlns:xlink="http://www.w3.org/1999/xlink" style="block-size:26px;border-block-end-color:rgb(204, 204, 204);border-block-start-color:rgb(204, 204, 204);border-bottom-color:rgb(204, 204, 204);border-inline-end-color:rgb(204, 204, 204);border-inline-start-color:rgb(204, 204, 204);border-left-color:rgb(204, 204, 204);border-right-color:rgb(204, 204, 204);border-top-color:rgb(204, 204, 204);caret-color:rgb(204, 204, 204);color:rgb(204, 204, 204);column-rule-color:rgb(204, 204, 204);cursor:pointer;fill:rgb(204, 204, 204);height:26px;inline-size:26px;line-height:16px;outline-color:rgb(204, 204, 204);perspective-origin:50% 50%;text-align:center;text-decoration:none solid rgb(204, 204, 204);text-decoration-color:rgb(204, 204, 204);transform-origin:50% 50%;width:26px;-webkit-text-emphasis-color:rgb(204, 204, 204);-webkit-text-fill-color:rgb(204, 204, 204);-webkit-text-stroke-color:rgb(204, 204, 204);">
  <path d="M12 2.163c3.204 0 3.584.012 4.85.07 3.252.148 4.771 1.691 4.919 4.919.058 1.265.069 1.645.069 4.849 0 3.205-.012 3.584-.069 4.849-.149 3.225-1.664 4.771-4.919 4.919-1.266.058-1.644.07-4.85.07-3.204 0-3.584-.012-4.849-.07-3.26-.149-4.771-1.699-4.919-4.92-.058-1.265-.07-1.644-.07-4.849 0-3.204.013-3.583.07-4.849.149-3.227 1.664-4.771 4.919-4.919 1.266-.057 1.645-.069 4.849-.069zm0-2.163c-3.259 0-3.667.014-4.947.072-4.358.2-6.78 2.618-6.98 6.98-.059 1.281-.073 1.689-.073 4.948 0 3.259.014 3.668.072 4.948.2 4.358 2.618 6.78 6.98 6.98 1.281.058 1.689.072 4.948.072 3.259 0 3.668-.014 4.948-.072 4.354-.2 6.782-2.618 6.979-6.98.059-1.28.073-1.689.073-4.948 0-3.259-.014-3.667-.072-4.947-.196-4.354-2.617-6.78-6.979-6.98-1.281-.059-1.69-.073-4.949-.073zm0 5.838c-3.403 0-6.162 2.759-6.162 6.162s2.759 6.163 6.162 6.163 6.162-2.759 6.162-6.163c0-3.403-2.759-6.162-6.162-6.162zm0 10.162c-2.209 0-4-1.79-4-4 0-2.209 1.791-4 4-4s4 1.791 4 4c0 2.21-1.791 4-4 4zm6.406-11.845c-.796 0-1.441.645-1.441 1.44s.645 1.44 1.441 1.44c.795 0 1.439-.645 1.439-1.44s-.644-1.44-1.439-1.44z" style="block-size:auto;border-block-end-color:rgb(204, 204, 204);border-block-start-color:rgb(204, 204, 204);border-bottom-color:rgb(204, 204, 204);border-inline-end-color:rgb(204, 204, 204);border-inline-start-color:rgb(204, 204, 204);border-left-color:rgb(204, 204, 204);border-right-color:rgb(204, 204, 204);border-top-color:rgb(204, 204, 204);caret-color:rgb(204, 204, 204);color:rgb(204, 204, 204);column-rule-color:rgb(204, 204, 204);cursor:pointer;d:path(&quot;M 12 2.163 C 15.204 2.163 15.584 2.175 16.85 2.233 C 20.102 2.381 21.621 3.924 21.769 7.152 C 21.827 8.417 21.838 8.797 21.838 12.001 C 21.838 15.206 21.826 15.585 21.769 16.85 C 21.62 20.075 20.105 21.621 16.85 21.769 C 15.584 21.827 15.206 21.839 12 21.839 C 8.796 21.839 8.416 21.827 7.151 21.769 C 3.891 21.62 2.38 20.07 2.232 16.849 C 2.174 15.584 2.162 15.205 2.162 12 C 2.162 8.796 2.175 8.417 2.232 7.151 C 2.381 3.924 3.896 2.38 7.151 2.232 C 8.417 2.175 8.796 2.163 12 2.163 Z M 12 0 C 8.741 0 8.333 0.014 7.053 0.072 C 2.695 0.272 0.273 2.69 0.073 7.052 C 0.014 8.333 -5.21541e-8 8.741 -5.21541e-8 12 C -5.21541e-8 15.259 0.0139999 15.668 0.072 16.948 C 0.272 21.306 2.69 23.728 7.052 23.928 C 8.333 23.986 8.741 24 12 24 C 15.259 24 15.668 23.986 16.948 23.928 C 21.302 23.728 23.73 21.31 23.927 16.948 C 23.986 15.668 24 15.259 24 12 C 24 8.741 23.986 8.333 23.928 7.053 C 23.732 2.699 21.311 0.273 16.949 0.073 C 15.668 0.014 15.259 -5.21541e-8 12 -5.21541e-8 Z M 12 5.838 C 8.597 5.838 5.838 8.597 5.838 12 S 8.597 18.163 12 18.163 S 18.162 15.404 18.162 12 C 18.162 8.597 15.403 5.838 12 5.838 Z M 12 16 C 9.791 16 8 14.21 8 12 C 8 9.791 9.791 8 12 8 S 16 9.791 16 12 C 16 14.21 14.209 16 12 16 Z M 18.406 4.155 C 17.61 4.155 16.965 4.8 16.965 5.595 S 17.61 7.035 18.406 7.035 C 19.201 7.035 19.845 6.39 19.845 5.595 S 19.201 4.155 18.406 4.155 Z&quot;);fill:rgb(0, 0, 0);height:auto;inline-size:auto;line-height:16px;outline-color:rgb(204, 204, 204);overflow-x:visible;overflow-y:visible;perspective-origin:50% 50%;text-align:center;text-decoration:none solid rgb(204, 204, 204);text-decoration-color:rgb(204, 204, 204);transform-origin:0px 0px;vertical-align:baseline;width:auto;-webkit-text-emphasis-color:rgb(204, 204, 204);-webkit-text-fill-color:rgb(204, 204, 204);-webkit-text-stroke-color:rgb(204, 204, 204);"/>
</svg>