<?xml version="1.0" standalone="no"?><!DOCTYPE svg PUBLIC "-//W3C//DTD SVG 1.1//EN" "http://www.w3.org/Graphics/SVG/1.1/DTD/svg11.dtd"><svg height="26px" width="26px" class="SVG_root___353jb" x="0px" y="0px" viewBox="0 0 26 26" version="1.1" xmlns="http://www.w3.org/2000/svg" xmlns:xlink="http://www.w3.org/1999/xlink" style="block-size:26px;border-block-end-color:rgb(204, 204, 204);border-block-start-color:rgb(204, 204, 204);border-bottom-color:rgb(204, 204, 204);border-inline-end-color:rgb(204, 204, 204);border-inline-start-color:rgb(204, 204, 204);border-left-color:rgb(204, 204, 204);border-right-color:rgb(204, 204, 204);border-top-color:rgb(204, 204, 204);caret-color:rgb(204, 204, 204);color:rgb(204, 204, 204);column-rule-color:rgb(204, 204, 204);cursor:pointer;fill:rgb(204, 204, 204);height:26px;inline-size:26px;line-height:16px;outline-color:rgb(204, 204, 204);perspective-origin:50% 50%;text-align:center;text-decoration:none solid rgb(204, 204, 204);text-decoration-color:rgb(204, 204, 204);transform-origin:50% 50%;width:26px;-webkit-text-emphasis-color:rgb(204, 204, 204);-webkit-text-fill-color:rgb(204, 204, 204);-webkit-text-stroke-color:rgb(204, 204, 204);">
  <path d="M26,4.999c-0.957,0.421-1.985,0.705-3.064,0.833c1.101-0.655,1.947-1.692,2.345-2.928 c-1.031,0.607-2.172,1.047-3.387,1.284c-0.973-1.029-2.359-1.671-3.894-1.671c-2.946,0-5.334,2.37-5.334,5.292 c0,0.415,0.047,0.819,0.138,1.206C8.371,8.795,4.441,6.688,1.81,3.486C1.351,4.268,1.088,5.177,1.088,6.147 c0,1.836,0.942,3.456,2.373,4.405c-0.874-0.028-1.697-0.266-2.416-0.662C1.044,9.913,1.044,9.935,1.044,9.957 c0,2.564,1.839,4.703,4.279,5.19c-0.448,0.121-0.919,0.186-1.405,0.186c-0.344,0-0.678-0.033-1.004-0.095 c0.679,2.103,2.649,3.633,4.983,3.675c-1.826,1.42-4.126,2.266-6.625,2.266c-0.431,0-0.855-0.025-1.272-0.074 c2.361,1.502,5.165,2.378,8.177,2.378c9.812,0,15.177-8.065,15.177-15.059c0-0.229-0.005-0.458-0.015-0.685 C24.381,6.993,25.285,6.061,26,4.999z" style="block-size:auto;border-block-end-color:rgb(204, 204, 204);border-block-start-color:rgb(204, 204, 204);border-bottom-color:rgb(204, 204, 204);border-inline-end-color:rgb(204, 204, 204);border-inline-start-color:rgb(204, 204, 204);border-left-color:rgb(204, 204, 204);border-right-color:rgb(204, 204, 204);border-top-color:rgb(204, 204, 204);caret-color:rgb(204, 204, 204);color:rgb(204, 204, 204);column-rule-color:rgb(204, 204, 204);cursor:pointer;d:path(&quot;M 26 4.999 C 25.043 5.42 24.015 5.704 22.936 5.832 C 24.037 5.177 24.883 4.14 25.281 2.904 C 24.25 3.511 23.109 3.951 21.894 4.188 C 20.921 3.159 19.535 2.517 18 2.517 C 15.054 2.517 12.666 4.887 12.666 7.809 C 12.666 8.224 12.713 8.628 12.804 9.015 C 8.371 8.795 4.441 6.688 1.81 3.486 C 1.351 4.268 1.088 5.177 1.088 6.147 C 1.088 7.983 2.03 9.603 3.461 10.552 C 2.587 10.524 1.764 10.286 1.045 9.89 C 1.044 9.913 1.044 9.935 1.044 9.957 C 1.044 12.521 2.883 14.66 5.323 15.147 C 4.875 15.268 4.404 15.333 3.918 15.333 C 3.574 15.333 3.24 15.3 2.914 15.238 C 3.593 17.341 5.563 18.871 7.897 18.913 C 6.071 20.333 3.771 21.179 1.272 21.179 C 0.841 21.179 0.417 21.154 -2.38419e-7 21.105 C 2.361 22.607 5.165 23.483 8.177 23.483 C 17.989 23.483 23.354 15.418 23.354 8.424 C 23.354 8.195 23.349 7.966 23.339 7.739 C 24.381 6.993 25.285 6.061 26 4.999 Z&quot;);fill:rgb(0, 0, 0);height:auto;inline-size:auto;line-height:16px;outline-color:rgb(204, 204, 204);overflow-x:visible;overflow-y:visible;perspective-origin:50% 50%;text-align:center;text-decoration:none solid rgb(204, 204, 204);text-decoration-color:rgb(204, 204, 204);transform-origin:0px 0px;vertical-align:baseline;width:auto;-webkit-text-emphasis-color:rgb(204, 204, 204);-webkit-text-fill-color:rgb(204, 204, 204);-webkit-text-stroke-color:rgb(204, 204, 204);"/>
</svg>